<svg version="1.2" xmlns="http://www.w3.org/2000/svg" viewBox="0 0 1150 628" width="1150" height="628">
	<title>about-extra-1-svg</title>
	<style>
		.s0 { opacity: .1;fill: #ff0000 } 
		.s1 { fill: #454b69 } 
		.s2 { fill: none } 
		.s3 { opacity: .4;fill: #000000 } 
		.s4 { opacity: .1;fill: #000000 } 
		.s5 { fill: #efb7b9 } 
		.s6 { fill: #ffffff } 
		.s7 { fill: #ff0000 } 
		.s8 { fill: #000000 } 
		.s9 { fill: #3f3d56 } 
		.s10 { fill: #9c9ca1 } 
		.s11 { fill: #939498 } 
	</style>
	<path id="Layer" class="s0" d="m1137.8 582.2q-1.7 4.1-3.5 8.2-1.9 4-3.9 7.9-2.1 4-4.3 7.8-2.3 3.9-4.7 7.6-1.1 1.8-2.3 3.6-1.2 1.7-2.5 3.4-1.2 1.7-2.5 3.4-1.3 1.7-2.6 3.3-0.1 0-0.1 0 0 0.1 0 0.1 0 0 0 0 0 0 0 0h-1111.4l0.2-0.1c1-0.8 6.8-5.5 16-13.7 6.5-5.8 14.7-13.4 24-22.5 75.4-74.2 220.5-250 99.7-411-112.3-149.7 8.6-176.8 88.3-180q11.5-0.4 22.9 0.3 11.5 0.7 22.8 2.5 11.3 1.9 22.4 4.8 11.1 3 21.8 7.1c36.8 14 104.2 35.5 191.9 45.3q4.3 0.5 8.7 0.9 17.4 1.8 34.9 2.8 17.4 1.1 34.9 1.4 17.5 0.3 35-0.1 17.5-0.4 35-1.5 2-0.2 4.1-0.3 17.3-1.2 34.5-3.2 17.2-1.9 34.3-4.5 17.1-2.7 34.1-6 17-3.4 33.8-7.5 4.4-1 8.7-2c149.6-34.6 287.6 83.4 253.1 216.7-12.8 49.3-9.5 101.9 33 144.4 69.6 69.4 61.1 137.8 43.7 180.9z"/>
	<path id="Layer" class="s1" d="m1137.8 582.2q-1.7 4.1-3.5 8.2-1.9 4-3.9 7.9-2.1 4-4.3 7.8-2.3 3.9-4.7 7.6-1.1 1.8-2.3 3.6-1.2 1.7-2.5 3.4-1.2 1.7-2.5 3.4-1.3 1.7-2.6 3.3h-1111.3c1-0.8 6.8-5.5 16-13.7 6.5-5.8 14.7-13.4 24-22.5l117.1-24.2q0.5-0.1 1.1-0.2 0.6-0.1 1.2-0.1 0.5-0.1 1.1-0.1 0.6-0.1 1.2-0.1l124.9-0.1h0.1l61.8-0.1h0.2l52.2-0.1h34.1 35l143.5-0.2h0.2 11.1 19.5 24.4 6.5l24.6-0.3h8.1l71.7-0.1h22.9 11l82.7-0.1h24.7l78.3-0.1 66.2-0.1q0.7 0 1.4 0.1 0.7 0 1.3 0.1 0.7 0.1 1.4 0.2 0.7 0.1 1.4 0.3z"/>
	<path id="Layer" class="s2" d="m16.1 613.7h1105.3q-1.1 1.8-2.3 3.6-1.2 1.7-2.5 3.4-1.2 1.7-2.5 3.4-1.3 1.7-2.6 3.3h-1111.3c0.9-0.8 6.8-5.6 15.9-13.7z"/>
	<path id="Layer" class="s3" d="m16.1 613.7h1105.3q-1.1 1.8-2.3 3.6-1.2 1.7-2.5 3.4-1.2 1.7-2.5 3.4-1.3 1.7-2.6 3.3h-1111.3c0.9-0.8 6.8-5.6 15.9-13.7z"/>
	<path id="Layer" class="s1" d="m733.2 302.7l-2.2 0.5-100.4 19.3c-29.1 5.6-58.7 11.2-88.3 9-21.4-1.5-41.5-7.9-62.1-13.5-11.6-3.1-24-4.4-27.9-17.4-5.5-18 3.4-44.7 5.5-62.9 2-17.9 3.1-36.3-0.4-54q-0.3-1.5-0.7-2.9-0.3-1.5-0.7-3-0.4-1.4-0.8-2.9-0.4-1.5-0.9-2.9c-3.6-10.6-9.2-21.6-6.2-32.4 2.4-8.5 9.7-14.6 16.5-20.2 13.4-11 27-23.3 32.3-39.8 2.6-8 3.1-16.6 5.9-24.6 5.3-15.1 18.7-26.4 33.5-32.4 14.8-5.9 31.2-7.2 47.2-7.2q5.3 0 10.6 0.2 5.3 0.2 10.6 0.5 5.2 0.4 10.5 0.9 5.3 0.5 10.5 1.2c15.3 2 30.7 5.3 44.2 12.9 13.4 7.6 24.7 20 27.8 35.1 4.5 21.4-7.8 44.2-1.2 65 3.3 10.5 11 19 16.3 28.6 2.2 4.1 3.9 8.3 5.3 12.6 1.3 4.4 2.2 8.9 2.6 13.4 0.4 4.6 0.4 9.1-0.1 13.7-0.5 4.5-1.4 9-2.8 13.3-6.4 19.8-22 39.8-14 59 5.1 12.2 18.1 18.7 27.2 28.3q1.2 1.3 2.2 2.6z"/>
	<path id="Layer" class="s4" d="m731 300.2v3l-100.4 19.3c-29.1 5.6-58.7 11.2-88.3 9-21.4-1.5-41.5-7.9-62.1-13.5-11.6-3.1-24-4.4-27.9-17.4-5.5-18 3.4-44.7 5.5-62.9 2-17.9 32.8-83.3 29.2-101l184 8c1.2 9.8 49.9 58.9 46.8 68.2-6.3 19.8-22 39.8-14 59 5.1 12.2 18.1 18.7 27.2 28.3z"/>
	<path id="Layer" class="s5" d="m543 250.7c1.1 6.2 1.7 13-1.5 18.4-4.2 7.3-13.4 9.6-21.6 11.2l-28.5 5.7c-1.9 0.4-4 0.9-5.4 2.2-1.7 1.5-2.3 3.9-2.6 6.2-1.1 10.3 2.5 20.5 5.9 30.3 6.7 20 12.3 40.3 20.8 59.5 8.5 19.2 20.2 37.5 36.9 50.4 16.7 12.8 38.7 19.7 59.1 14.6 17.8-4.3 32.4-16.9 45-30.2 10.3-11 20-23 25.1-37.3 3.4-9.8 4.6-20.2 5.7-30.5q2.5-23.8 5-47.6c0.8-7.4 1.3-15.8-3.5-21.5-2.1-2.5-5-4.2-7.9-5.7-11-5.9-22.5-10.7-32.7-17.7-10.2-7-19.2-16.6-22.3-28.6-1.8-7.1-1.5-15-4.6-21.6-3.6-7.5-11-12.6-19-14.9-8-2.2-16.5-1.9-24.7-1-8.3 1-40 3.4-43.4 12.6-1.9 5 5.7 15.8 7.5 20.7q1.1 3 2.1 6.1 1 3.1 1.8 6.2 0.9 3.1 1.5 6.2 0.7 3.2 1.3 6.3z"/>
	<path id="Layer" class="s4" d="m543 250.7c1.1 6.2 1.7 13-1.5 18.4-4.2 7.3-13.4 9.6-21.6 11.2l-28.5 5.7c-1.9 0.4-4 0.9-5.4 2.2-1.7 1.5-2.3 3.9-2.6 6.2-1.1 10.3 2.5 20.5 5.9 30.3 6.7 20 12.3 40.3 20.8 59.5 8.5 19.2 20.2 37.5 36.9 50.4 16.7 12.8 38.7 19.7 59.1 14.6 17.8-4.3 32.4-16.9 45-30.2 10.3-11 20-23 25.1-37.3 3.4-9.8 4.6-20.2 5.7-30.5q2.5-23.8 5-47.6c0.8-7.4 1.3-15.8-3.5-21.5-2.1-2.5-5-4.2-7.9-5.7-11-5.9-22.5-10.7-32.7-17.7-10.2-7-19.2-16.6-22.3-28.6-1.8-7.1-1.5-15-4.6-21.6-3.6-7.5-11-12.6-19-14.9-8-2.2-16.5-1.9-24.7-1-8.3 1-40 3.4-43.4 12.6-1.9 5 5.7 15.8 7.5 20.7q1.1 3 2.1 6.1 1 3.1 1.8 6.2 0.9 3.1 1.5 6.2 0.7 3.2 1.3 6.3z"/>
	<path id="Layer" class="s6" d="m611.6 359.5l16.7-35.4c7.8-16.6 15.8-34 15-52.3-0.2-3.6-0.2-8.2 3-9.8q0.5-0.3 1.1-0.4 0.5-0.1 1.1-0.2 0.5-0.1 1.1-0.1 0.5 0 1.1 0.1 6.6 0.3 13.1 1.2 6.6 0.8 13 2.1 6.5 1.3 12.8 3.1 6.4 1.8 12.6 4c3.2 1.2 6.5 2.5 8.8 5.1 2.2 2.5 3.1 6 3.9 9.3q1 4.2 1.8 8.4 0.9 4.2 1.6 8.4 0.7 4.3 1.3 8.5 0.6 4.3 1 8.5c3 28.3 1.5 56.7 0 85l-4.4 86.5q0 0.4-0.1 0.9 0 0.4-0.1 0.9-0.1 0.4-0.2 0.9-0.2 0.4-0.4 0.8c-1.1 2-3.5 2.7-5.8 3.1-8.6 1.4-17.3 1.1-26 0.8-61.2-2.3-122.8-5.9-183.6 1.6q0.4-13.5-0.4-27c-2.4-38.9-12.5-76.9-22.4-114.6-5.7-22-11.3-46-2-66.7q0.5-1.2 1.1-2.4 0.6-1.1 1.3-2.3 0.8-1.1 1.6-2.1 0.8-1 1.7-2c4-3.9 9.4-5.9 14.7-7.4q3.5-0.9 7-1.6 3.5-0.7 7-1.1 3.6-0.4 7.2-0.5 3.5-0.1 7.1 0l63.1 137.3c2.8 6.3 5.2 12.9 8.1 19.1 2.6-10.7-0.5-23.3 2.6-34.9 3.3-12 8.6-23.6 13.9-34.8z"/>
	<path id="Layer" class="s7" d="m605 453.9c11.3 0.7 22.2-5 30-13.2 7.8-8.2 12.9-18.5 17.2-29q2.3-5.6 4.4-11.3 2.1-5.7 4-11.5 1.8-5.7 3.4-11.6 1.6-5.8 3-11.7c3-13.4 5.1-27.3 3.1-40.9-2.9-18.7-13.5-35.8-15.3-54.6-0.3-3.3-0.1-7.2 2.5-9.2 1.7-1.2 3.8-1.4 5.9-1.5 18.8-1.1 39.5-0.9 54.1 11.1 4.5 3.6 8.1 8.1 12.5 11.9 10.3 9 25 13.6 31.6 25.5 2.3 4.2 3.4 8.9 5.1 13.4 3.8 10.6 10.4 19.9 17 29.1-6.4 26.8-13.7 53.7-20.1 80.6-3.7 15.8-7.5 31.6-13.4 46.7-3.8 9.9-8.6 20-7.4 30.6 0.4 4.2 1.8 8.2 3 12.2q1.6 5.3 2.8 10.7 1.2 5.4 1.9 10.8 0.7 5.5 1 11 0.3 5.5 0.2 11l-285.3 0.7c13.6-19.6 17.7-43.6 16.3-67.5-0.7-11.4-3.3-22.9-9-32.8-9.1-15.5-25-25.6-40.7-34.2-11-6-22.9 27.7-34.7 23.9 1.9-13.6 2.8-66 2-79.7-0.3-4.5-0.7-9.1 0.7-13.4 0.9-2.9 2.7-5.5 3.8-8.4 4.7-11.4 0.2-26 7.8-35.7 5.3-6.7 14.4-8.7 21.9-12.8 7.7-4.3 13.6-11 20.3-16.8q4.9-4.1 10.3-7.5 5.4-3.4 11.3-6.1 5.9-2.6 12-4.3 6.2-1.8 12.6-2.7 1.8 3 3.3 6.1 1.5 3.1 2.6 6.4 1.1 3.3 1.8 6.7 0.8 3.4 1.1 6.8c0.5 5.9 0.1 11.7 0.9 17.5 1.1 7.9 4.4 15.2 7.6 22.4 13.3 30.2 26.8 60.5 43.7 88.9 4.8 8 10 16 17 22.2 6.9 6.2 16.9 10.7 26.2 10.2z"/>
	<path id="Layer" class="s4" d="m605 453.9c11.3 0.7 22.2-5 30-13.2 7.8-8.2 12.9-18.5 17.2-29q2.3-5.6 4.4-11.3 2.1-5.7 4-11.5 1.8-5.7 3.4-11.6 1.6-5.8 3-11.7c3-13.4 5.1-27.3 3.1-40.9-2.9-18.7-13.5-35.8-15.3-54.6-0.3-3.3-0.1-7.2 2.5-9.2 1.7-1.2 3.8-1.4 5.9-1.5 18.8-1.1 39.5-0.9 54.1 11.1 4.5 3.6 8.1 8.1 12.5 11.9 10.3 9 25 13.6 31.6 25.5 2.3 4.2 3.4 8.9 5.1 13.4 3.8 10.6 10.4 19.9 17 29.1-6.4 26.8-13.7 53.7-20.1 80.6-3.7 15.8-7.5 31.6-13.4 46.7-3.8 9.9-8.6 20-7.4 30.6 0.4 4.2 1.8 8.2 3 12.2q1.6 5.3 2.8 10.7 1.2 5.4 1.9 10.8 0.7 5.5 1 11 0.3 5.5 0.2 11l-285.3 0.7c13.6-19.6 17.7-43.6 16.3-67.5-0.7-11.4-3.3-22.9-9-32.8-9.1-15.5-25-25.6-40.7-34.2-11-6-22.9 27.7-34.7 23.9 1.9-13.6 2.8-66 2-79.7-0.3-4.5-0.7-9.1 0.7-13.4 0.9-2.9 2.7-5.5 3.8-8.4 4.7-11.4 0.2-26 7.8-35.7 5.3-6.7 14.4-8.7 21.9-12.8 7.7-4.3 13.6-11 20.3-16.8q4.9-4.1 10.3-7.5 5.4-3.4 11.3-6.1 5.9-2.6 12-4.3 6.2-1.8 12.6-2.7 1.8 3 3.3 6.1 1.5 3.1 2.6 6.4 1.1 3.3 1.8 6.7 0.8 3.4 1.1 6.8c0.5 5.9 0.1 11.7 0.9 17.5 1.1 7.9 4.4 15.2 7.6 22.4 13.3 30.2 26.8 60.5 43.7 88.9 4.8 8 10 16 17 22.2 6.9 6.2 16.9 10.7 26.2 10.2z"/>
	<path id="Layer" class="s5" d="m589.9 248.5c-47.4 0-85.7-38.3-85.7-85.8 0-47.4 38.3-85.7 85.7-85.7 47.4 0 85.7 38.3 85.7 85.8 0 47.4-38.3 85.7-85.7 85.7z"/>
	<path id="Layer" class="s1" d="m544.9 277c2.4-22.2-6.8-43.9-17.3-63.6-5-9.4-10.3-18.8-12.8-29.2-2.6-10.3-1.8-22 4.6-30.6 5.4-7.2 14.1-11.1 22.1-15.3 22.6-12 43.3-29.7 53.2-53.3-5.6 3.1-4.1 12.2 0.8 16.2 5 4.1 11.8 4.9 17.9 6.8 22.2 7 35.5 29.1 46.2 49.9 1.8 3.4 3.6 6.9 3.5 10.7 0 3.8-1.7 7.2-3.5 10.5-5.3 9.4-11.8 18.4-14.2 28.9-2.7 12 0.2 24.6 3.9 36.4 4 12.5 9.3 25.1 18.9 34.1 9.6 9 24.5 13.4 36.3 7.6-11.7-20.2-24-42.9-19.4-65.8 2.3-11 8.2-21 10.8-32 4.8-20.9-3.2-42.3-11.2-62.2l-23.6-59.5c-3.6-9.1-7.7-18.8-16-23.9-5.6-3.5-12.4-4.4-18.9-5-21.2-1.9-43-1.3-62.7 6.6-35.8 14.3-58.3 49.6-76.1 83.8-5.3 10.2-10.6 21.1-10.4 32.7 0.1 6.3 1.9 12.5 3.3 18.7 5.9 25.1 6.2 51.2 6.5 77 0.3 19.8-0.8 38.5-9.4 56.6 11.8 2.3 29.1 8.7 40.8 4 15.4-6 24.8-24.7 26.7-40.1z"/>
	<g id="Layer" style="opacity: .1">
		<path id="Layer" class="s8" d="m486.8 256.1q0-4.2 0-8.5c-0.3-25.9-0.6-51.9-6.5-77.1q-0.5-1.8-0.9-3.7-0.5-1.8-0.8-3.7-0.4-1.9-0.8-3.7-0.3-1.9-0.6-3.8 0 0.7-0.1 1.3 0 0.7-0.1 1.3 0 0.7 0 1.3 0 0.7 0 1.3c0.1 6.3 1.9 12.5 3.3 18.7 5.8 25 6.2 50.9 6.5 76.6z"/>
		<path id="Layer" class="s8" d="m695.9 188.3q0.5-2.2 0.8-4.4 0.3-2.2 0.5-4.5 0.2-2.2 0.2-4.4-0.1-2.3-0.2-4.5-0.1 1.1-0.2 2.2-0.1 1.1-0.3 2.2-0.2 1.1-0.4 2.2-0.2 1.1-0.4 2.2c-2.6 11-8.5 20.9-10.8 31.9q-0.3 1.9-0.5 3.7-0.3 1.9-0.4 3.7-0.1 1.9 0 3.7 0 1.9 0.2 3.7 0-0.7 0.1-1.4 0.1-0.7 0.2-1.5 0.1-0.7 0.2-1.4 0.1-0.7 0.3-1.4c2.2-11.1 8.1-21 10.7-32z"/>
		<path id="Layer" class="s8" d="m662.4 164q0.1-0.5 0.3-1 0.1-0.6 0.2-1.1 0.1-0.6 0.2-1.1 0-0.6 0-1.2c0-3.8-1.7-7.3-3.5-10.7-10.7-20.8-24-42.9-46.2-49.9-6.1-1.9-12.9-2.7-17.9-6.8q-0.9-0.8-1.7-1.8-0.8-1-1.3-2.1-0.6-1.2-0.9-2.4-0.4-1.2-0.4-2.5c-10.9 19.9-29.5 35.2-49.7 45.8-8 4.3-16.7 8.2-22.1 15.4-5.1 6.8-6.6 15.7-5.7 24.3q0.1-2.1 0.6-4.1 0.5-2 1.2-3.9 0.7-2 1.7-3.8 1-1.8 2.2-3.4c5.4-7.3 14.1-11.2 22.1-15.5 20.2-10.6 38.8-25.9 49.7-45.8q0 1.3 0.4 2.5 0.3 1.2 0.9 2.4 0.5 1.1 1.3 2.1 0.8 1 1.7 1.8c5 4 11.8 4.9 17.9 6.8 22.2 7 35.5 29.1 46.2 49.9q0.4 0.7 0.8 1.5 0.4 0.7 0.7 1.5 0.4 0.8 0.7 1.6 0.3 0.7 0.6 1.5z"/>
		<path id="Layer" class="s8" d="m668.3 269.5c-9.6-9-14.9-21.6-19-34.1q-0.9-2.6-1.6-5.3-0.8-2.7-1.4-5.4-0.6-2.7-1-5.5-0.5-2.7-0.8-5.5c-0.9 10.2 1.7 20.8 4.8 30.7 4 12.5 9.4 25.1 19 34.1 9.6 9 24.4 13.4 36.3 7.6q-2.2-3.6-4.3-7.3c-10.9 3.1-23.5-1.4-32-9.3z"/>
		<path id="Layer" class="s8" d="m544.9 268c-1.9 15.4-11.3 34.1-26.7 40.2-10.7 4.2-25.9-0.6-37.5-3.3q-0.3 1-0.7 2.1-0.4 1-0.9 2-0.4 1.1-0.8 2.1-0.5 1-1 2c11.9 2.4 29.1 8.7 40.9 4.1 15.4-6.1 24.8-24.8 26.7-40.2q0.2-1.5 0.3-2.9 0.1-1.5 0.1-2.9 0-1.5 0-2.9-0.1-1.5-0.1-2.9-0.2 1.3-0.3 2.6z"/>
	</g>
	<path id="Layer" class="s6" d="m666.1 515.9c-15.5-2.4-31.1-7.2-46.5-4-8.8 1.9-17 6.3-24.3 11.6 4 3.3 8.8 6.2 11.3 10.7q0.6 1.2 1.2 2.4 0.5 1.2 0.9 2.4 0.5 1.3 0.9 2.5 0.3 1.3 0.6 2.6c1.6 6 3.3 12.1 3.5 18.3 0.3 6.3-1 12.8-4.7 17.8 19.5 1.9 38.4-2.9 57.4-7.6q0.8-0.1 1.6-0.3 0.8-0.3 1.5-0.6 0.8-0.3 1.5-0.7 0.8-0.4 1.4-0.8c3-2.4 3.9-6.6 3.9-10.4 0-6.9-1.9-13.5-3.8-20.1-2.4-7.9-4.1-16-6.4-23.8z"/>
	<path id="Layer" class="s7" d="m770.4 347.3c7.7 0.9 13.6 7.1 18 13.5 12.3 17.7 17.6 39.2 23.5 59.9q11 38.7 25.9 76.1 0.8 2.2 1.7 4.3 0.9 2.1 1.8 4.2 1 2.1 2 4.2 1.1 2 2.2 4c2.5 4.1 5.5 8.1 6.6 12.8 2.6 11.3-6.7 22-16.5 28.3q-1.9 1.3-3.9 2.5-2.1 1.2-4.2 2.2-2.1 1-4.3 1.9-2.2 0.8-4.4 1.5c-5.8 1.8-11.9 2.4-17.9 3.1l-55.5 6c-25.6 2.8-51.4 5.6-76.9 2.9-1.6-5.6 1.5-9.6 1.3-15.4-0.2-4.2-2-8.1-3.6-11.9q-1.2-2.6-2.1-5.2-1-2.6-1.7-5.3-0.8-2.7-1.3-5.5-0.5-2.7-0.9-5.5c-0.3-2.7-0.4-5.5-1.4-8.1-1-2.5-3.3-4.8-6-5 15-1.5 26.4-4.3 41.4-5.8 5.6-0.6 11.3-1.2 16.1-4.2 5.9-3.6 9.2-10.2 11.8-16.7 6.5-15.9 10.7-33.4 7.3-50.2-2.8-13.8-10.6-26.7-10.6-40.8 0-8.4 2.9-16.5 6.2-24.2 3.6-8.1 8.3-16.4 16.1-20.5 7.9-4.1 20.4-4.3 29.3-3.2z"/>
	<path id="Layer" class="s4" d="m770.4 347.3c7.7 0.9 13.6 7.1 18 13.5 12.3 17.7 17.6 39.2 23.5 59.9q11 38.7 25.9 76.1 0.8 2.2 1.7 4.3 0.9 2.1 1.8 4.2 1 2.1 2 4.2 1.1 2 2.2 4c2.5 4.1 5.5 8.1 6.6 12.8 2.6 11.3-6.7 22-16.5 28.3q-1.9 1.3-3.9 2.5-2.1 1.2-4.2 2.2-2.1 1-4.3 1.9-2.2 0.8-4.4 1.5c-5.8 1.8-11.9 2.4-17.9 3.1l-55.5 6c-25.6 2.8-51.4 5.6-76.9 2.9-1.6-5.6 1.5-9.6 1.3-15.4-0.2-4.2-2-8.1-3.6-11.9q-1.2-2.6-2.1-5.2-1-2.6-1.7-5.3-0.8-2.7-1.3-5.5-0.5-2.7-0.9-5.5c-0.3-2.7-0.4-5.5-1.4-8.1-1-2.5-3.3-4.8-6-5 15-1.5 26.4-4.3 41.4-5.8 5.6-0.6 11.3-1.2 16.1-4.2 5.9-3.6 9.2-10.2 11.8-16.7 6.5-15.9 10.7-33.4 7.3-50.2-2.8-13.8-10.6-26.7-10.6-40.8 0-8.4 2.9-16.5 6.2-24.2 3.6-8.1 8.3-16.4 16.1-20.5 7.9-4.1 20.4-4.3 29.3-3.2z"/>
	<path id="Layer" class="s5" d="m422.8 334.3c3.6-8.7 7.3-17.6 7.4-26.9 0.1-10.1-4-19.7-7.1-29.3q-1.5-4.4-2.7-8.9-1.2-4.5-2.2-9-0.9-4.5-1.6-9.1-0.8-4.6-1.2-9.2-0.1-0.4-0.1-0.9 0-0.4 0-0.9 0.1-0.4 0.2-0.9 0.2-0.4 0.4-0.8c0.8-1.2 2.4-1.4 3.8-1.7 6.9-1.6 12.2-7.2 16.5-12.8q2.5-3.3 4.8-6.7 2.3-3.4 4.4-6.9 2.2-3.5 4.1-7.2 1.9-3.6 3.5-7.4c3.4-7.3 7.8-16.3 15.9-16.4q-1.2 5.7-2.6 11.4-1.3 5.7-2.8 11.4-1.6 5.6-3.2 11.3-1.7 5.6-3.5 11.2c8.5-2.2 16.5-5.3 25-7.5q0.6-0.2 1.2-0.3 0.7-0.2 1.3-0.3 0.6 0 1.3-0.1 0.6 0 1.3 0c5.1 0.5 8.2 7.4 5.2 11.5 4.1 4.9 11 6.2 16.4 9.5 5.4 3.3 9.3 11.5 4.5 15.7-1 0.8-2.1 1.4-2.8 2.4-2.3 3.6 3.3 7.7 2.9 12-0.4 3.4-4.9 5.1-8.2 4.1-3.4-0.9-6-3.4-9-5.3-3-1.8-6.9-3-9.9-1-0.7 9.4-1.6 19-5.6 27.5-1.5 3.2-3.4 6.1-4.7 9.3q-0.4 1.4-0.7 2.7-0.4 1.4-0.6 2.8-0.3 1.3-0.5 2.7-0.2 1.4-0.3 2.8l-3.6 33.2c-17.3 3.4-32.9-1.8-47.2-12z"/>
	<path id="Layer" class="s6" d="m418.6 364l-3.2-21.6q-0.1-0.6-0.2-1.3-0.1-0.7-0.2-1.3 0-0.7-0.1-1.4 0-0.6 0-1.3c0-5 2.2-9.8 4.3-14.3 17.7 8.2 36.7 11.2 56.2 11.2 2.6 0 5.5-0.3 7.1-2.3 3.3 3.8 3.4 10 2 14.8-1.4 4.8-4.1 9.2-5.9 13.9-0.9 2.4-1.7 5-3.4 6.9-2.7 2.9-7.1 3.4-11.1 3.3q-1.5 0-3.1 0-1.6-0.1-3.1-0.3-1.6-0.1-3.1-0.3-1.6-0.3-3.1-0.6c-10.7-1.9-22.5-7.3-33.1-5.4z"/>
	<path id="Layer" class="s7" d="m484.4 363.1q-20.5-2.3-40.8-6.6c-6.6-1.4-13.3-2.9-20.1-2.6-4.4 0.1-9.1 1-13-1.2 3.8 12.9 4 26.4-0.5 39-2.7 7.5-6.7 14.5-8.7 22.2-4.1 16.1 1.5 33.7-3.6 49.6q-0.2 0.8-0.5 1.5-0.3 0.8-0.7 1.5-0.4 0.7-0.8 1.3-0.5 0.7-1.1 1.2c-1.5 1.5-3.7 2.2-5.1 3.7-2.1 2.3-2.2 5.8-2.3 8.9v27.5c-0.1 17.6 0.1 36.2 9.4 51 10.5 17 32.8 25.8 52.1 20.7q1.9-0.5 3.8-1.2 1.9-0.7 3.7-1.6 1.7-0.9 3.4-1.9 1.7-1.1 3.3-2.3c6.7-5.3 11-13 15.2-20.6 5-9 10-18.2 11.6-28.3 1.1-7.2 0.5-14.5-0.3-21.7-4.6-40-14.4-79.6-12.3-119.8q0.2-2.7 0.7-5.4 0.5-2.7 1.4-5.3 1-2.6 2.3-5 1.3-2.4 2.9-4.6z"/>
	<path id="Layer" class="s5" d="m541.7 529.1c-7 0.4-14 0.8-20.9 0-5-0.6-9.9-1.8-14.8-2.6-6.8-1.1-13.6-1.5-20.5-1.1-6.8 0.4-13.6 1.5-20.2 3.3-6.6 1.8-12.9 4.4-19 7.6-6 3.2-11.7 7-16.9 11.4-3.9 3.3-7.8 8.3-5.6 12.9 2.2 5 9.2 4.8 14.6 3.9q-2.2 1.1-4.2 2.3-2.1 1.3-4 2.8-1.8 1.4-3.6 3.1-1.7 1.7-3.2 3.5c-1.5 1.9-2.9 4-2.6 6.4 0.6 5 7.3 5.9 12.3 5.4-1.7 1.8-0.6 4.9 1.5 6 2 1.2 4.6 1 6.9 0.5q2-0.3 3.9-0.8 1.9-0.5 3.7-1.1 1.9-0.7 3.7-1.5 1.8-0.7 3.5-1.7c-0.9 2.5 0.7 5.4 3 6.6 2.3 1.2 5.1 1.1 7.7 0.7 12.2-2 22.4-10.5 34.3-13.9 19.1-5.3 39 3.2 58.9 3.8 6.2 0.2 12.5-0.4 18.2-3 6.9-3.1 12.5-9 19.8-11.1 8.1-2.4 17.5 0.3 24.9-3.7 5.4-2.9 0.5-25.3-0.8-29.7-2.6-7.9-5.1-13.1-13.5-13.9-21.4-2.1-45.6 2.7-67.1 3.9z"/>
	<path id="Layer" class="s6" d="m594.9 523c0 0 32.3 27.3 13.6 57.2l36-12.5v-26.1c0-1.2-13.6-19.8-13.6-19.8l-16.2-2.5z"/>
	<path id="Layer" class="s9" d="m256.8 521.3h12.1c3.3 0 6.5 0.7 9.6 1.9 3 1.3 5.8 3.1 8.1 5.4 2.3 2.4 4.1 5.1 5.4 8.2 1.3 3 1.9 6.2 1.9 9.5v37.1h-62.1v-37.1c0-3.3 0.6-6.5 1.9-9.5 1.2-3.1 3.1-5.8 5.4-8.2 2.3-2.3 5.1-4.1 8.1-5.4 3.1-1.2 6.3-1.9 9.6-1.9z"/>
	<path id="Layer" class="s4" d="m256.8 521.3h12.1c3.3 0 6.5 0.7 9.6 1.9 3 1.3 5.8 3.1 8.1 5.4 2.3 2.4 4.1 5.1 5.4 8.2 1.3 3 1.9 6.2 1.9 9.5v37.1h-62.1v-37.1c0-3.3 0.6-6.5 1.9-9.5 1.2-3.1 3.1-5.8 5.4-8.2 2.3-2.3 5.1-4.1 8.1-5.4 3.1-1.2 6.3-1.9 9.6-1.9z"/>
	<path id="Layer" class="s9" d="m260.4 535c-2.8 0-5-2.2-5-5 0-2.7 2.2-5 5-5 2.7 0 4.9 2.3 4.9 5 0 2.8-2.2 5-4.9 5z"/>
	<path id="Layer" class="s9" d="m260.4 528.8c-2.8 0-5-2.3-5-5 0-2.7 2.2-5 5-5 2.7 0 4.9 2.3 4.9 5 0 2.7-2.2 5-4.9 5z"/>
	<path id="Layer" class="s9" d="m260.4 522.6c-2.8 0-5-2.3-5-5 0-2.8 2.2-5 5-5 2.7 0 4.9 2.2 4.9 5 0 2.7-2.2 5-4.9 5z"/>
	<path id="Layer" class="s9" d="m260.4 516.4c-2.8 0-5-2.3-5-5 0-2.8 2.2-5 5-5 2.7 0 4.9 2.2 4.9 5 0 2.7-2.2 5-4.9 5z"/>
	<path id="Layer" class="s9" d="m260.4 510.1c-2.8 0-5-2.2-5-4.9 0-2.8 2.2-5 5-5 2.7 0 4.9 2.2 4.9 5 0 2.7-2.2 4.9-4.9 4.9z"/>
	<path id="Layer" class="s9" d="m260.4 503.9c-2.8 0-5-2.2-5-4.9 0-2.8 2.2-5 5-5 2.7 0 4.9 2.2 4.9 5 0 2.7-2.2 4.9-4.9 4.9z"/>
	<path id="Layer" class="s9" d="m260.4 497.7c-2.8 0-5-2.2-5-5 0-2.7 2.2-4.9 5-4.9 2.7 0 4.9 2.2 4.9 4.9 0 2.8-2.2 5-4.9 5z"/>
	<path id="Layer" class="s9" d="m267.8 500.2c-2.7 0-5-2.2-5-5 0-2.7 2.3-4.9 5-4.9 2.8 0 5 2.2 5 4.9 0 2.8-2.2 5-5 5z"/>
	<path id="Layer" class="s9" d="m272.8 497.7c-2.8 0-5-2.2-5-5 0-2.7 2.2-4.9 5-4.9 2.7 0 5 2.2 5 4.9 0 2.8-2.3 5-5 5z"/>
	<path id="Layer" class="s9" d="m277.8 495.2c-2.8 0-5-2.2-5-4.9 0-2.8 2.2-5 5-5 2.7 0 4.9 2.2 4.9 5 0 2.7-2.2 4.9-4.9 4.9z"/>
	<path id="Layer" class="s9" d="m260.4 491.5c-2.8 0-5-2.2-5-5 0-2.7 2.2-4.9 5-4.9 2.7 0 4.9 2.2 4.9 4.9 0 2.8-2.2 5-4.9 5z"/>
	<path id="Layer" class="s9" d="m260.4 485.3c-2.8 0-5-2.2-5-5 0-2.7 2.2-5 5-5 2.7 0 4.9 2.3 4.9 5 0 2.8-2.2 5-4.9 5z"/>
	<path id="Layer" class="s7" d="m260.4 479.1c-2.8 0-5-2.2-5-5 0-2.7 2.2-5 5-5 2.7 0 4.9 2.3 4.9 5 0 2.8-2.2 5-4.9 5z"/>
	<path id="Layer" class="s7" d="m260.4 472.9c-2.8 0-5-2.3-5-5 0-2.7 2.2-5 5-5 2.7 0 4.9 2.3 4.9 5 0 2.7-2.2 5-4.9 5z"/>
	<path id="Layer" class="s7" d="m281 451.9q-1.9 0.2-3.7 0.4 0.4-0.4 0.8-0.8 0.4-0.4 0.8-0.8 0.4-0.4 0.8-0.9 0.4-0.4 0.8-0.8-0.3-0.8-0.6-1.6-0.3-0.7-0.7-1.5-0.4-0.7-0.8-1.4-0.4-0.7-0.9-1.3-0.5 0.2-1 0.4-0.5 0.2-1 0.4-0.5 0.1-1 0.3-0.5 0.1-1 0.1-1.9 0.3-3.7 0.4c1.6-1.3 3.1-3.3 4.7-5-7.4-6.7-18.4-7.3-26.5-1.5-8.1 5.9-11 16.6-6.9 25.7 4 9.1 13.9 14.2 23.6 12.1 9.8-2.1 16.8-10.7 16.8-20.7q0-0.4-0.1-0.9 0-0.4 0-0.9-0.1-0.5-0.1-0.9-0.1-0.5-0.2-0.9z"/>
	<path id="Layer" class="s7" d="m297.6 476.6q-0.5 0.3-1 0.5-0.5 0.2-1 0.4-0.6 0.2-1.1 0.3-0.6 0.1-1.1 0.2-1.9 0.2-3.7 0.3 0.5-0.4 1-0.9 0.4-0.4 0.9-0.9 0.5-0.5 0.9-1 0.4-0.5 0.9-1c-6.2-1.6-12.7 1.8-14.9 7.8-2.2 6 0.6 12.8 6.4 15.5 5.8 2.8 12.7 0.7 16-4.9 3.3-5.5 1.8-12.6-3.3-16.4z"/>
	<path id="Layer" class="s7" d="m252.9 500.2c-2.7 0-5-2.2-5-5 0-2.7 2.3-4.9 5-4.9 2.8 0 5 2.2 5 4.9 0 2.8-2.2 5-5 5z"/>
	<path id="Layer" class="s7" d="m247.9 497.7c-2.7 0-4.9-2.2-4.9-5 0-2.7 2.2-4.9 4.9-4.9 2.8 0 5 2.2 5 4.9 0 2.8-2.2 5-5 5z"/>
	<path id="Layer" class="s7" d="m243 495.2c-2.8 0-5-2.2-5-4.9 0-2.8 2.2-5 5-5 2.7 0 4.9 2.2 4.9 5 0 2.7-2.2 4.9-4.9 4.9z"/>
	<path id="Layer" class="s7" d="m223.2 476.6q0.4 0.3 0.9 0.5 0.5 0.2 1.1 0.4 0.5 0.2 1 0.3 0.6 0.1 1.1 0.2 1.9 0.2 3.8 0.3-0.5-0.4-1-0.9-0.5-0.4-1-0.9-0.4-0.5-0.9-1-0.4-0.5-0.8-1c6.2-1.6 12.6 1.8 14.8 7.8 2.2 6-0.6 12.8-6.4 15.5-5.7 2.8-12.7 0.7-16-4.9-3.3-5.5-1.8-12.6 3.4-16.4z"/>
	<path id="Layer" class="s7" d="m256.8 525h12.1c3.3 0 6.5 0.6 9.6 1.9 3 1.3 5.8 3.1 8.1 5.4 2.3 2.3 4.1 5.1 5.4 8.1 1.3 3.1 1.9 6.3 1.9 9.6v32.9q0 0.8-0.3 1.6-0.3 0.8-0.9 1.4-0.6 0.6-1.4 0.9-0.8 0.3-1.6 0.3h-53.7q-0.8 0-1.6-0.3-0.8-0.3-1.4-0.9-0.6-0.6-0.9-1.4-0.3-0.8-0.3-1.6v-32.9c0-3.3 0.6-6.5 1.9-9.6 1.2-3 3.1-5.8 5.4-8.1 2.3-2.3 5.1-4.2 8.1-5.4 3.1-1.3 6.3-1.9 9.6-1.9z"/>
	<g id="Layer" style="opacity: .1">
		<path id="Layer" class="s8" d="m281.3 453.2q-0.1 0.2-0.3 0.4-0.2 0.2-0.4 0.4-0.2 0.2-0.4 0.4-0.2 0.2-0.5 0.4c0.6 0 1.2-0.1 1.7-0.2q0-0.7-0.1-1.4z"/>
		<path id="Layer" class="s8" d="m272.3 447.3q1.8-0.1 3.7-0.4 0.4-0.1 0.8-0.1 0.4-0.1 0.8-0.2 0.5-0.1 0.8-0.3 0.4-0.1 0.8-0.3-0.2-0.4-0.4-0.7-0.2-0.4-0.4-0.7-0.2-0.4-0.4-0.8-0.3-0.3-0.5-0.7-0.2 0.2-0.5 0.3-0.2 0.1-0.5 0.2-0.2 0.2-0.5 0.2-0.2 0.1-0.5 0.2-0.4 0.4-0.8 0.9-0.3 0.4-0.7 0.8-0.5 0.4-0.9 0.8-0.4 0.4-0.8 0.8z"/>
		<path id="Layer" class="s8" d="m241.7 458c0-3.8 1-7.6 3-10.8 1.9-3.3 4.7-6 8-7.8 3.3-1.8 7.1-2.7 10.9-2.5 3.8 0.1 7.4 1.2 10.6 3.3l0.4-0.3c-4.3-3.8-9.8-5.7-15.4-5.3-5.6 0.3-10.8 2.9-14.5 7.1-3.7 4.2-5.6 9.8-5.2 15.4 0.4 5.6 3 10.8 7.2 14.5q-1.2-1.4-2.1-3-0.9-1.6-1.6-3.4-0.6-1.7-0.9-3.6-0.4-1.8-0.4-3.6z"/>
	</g>
	<g id="Layer" style="opacity: .1">
		<path id="Layer" class="s8" d="m289.7 480.8q1.8-0.1 3.7-0.4 0.5 0 1.1-0.1 0.5-0.1 1.1-0.3 0.5-0.2 1-0.4 0.5-0.3 1-0.6 1 0.8 1.9 1.8 0.9 1 1.5 2.1 0.7 1.1 1 2.4 0.4 1.2 0.6 2.5 0-0.1 0-0.3 0-0.2 0-0.3 0-0.2 0-0.3 0-0.2 0-0.4 0-1.4-0.3-2.8-0.3-1.5-1-2.8-0.6-1.3-1.6-2.4-0.9-1.1-2.1-2-0.4 0.3-0.9 0.6-0.5 0.2-1.1 0.4-0.5 0.1-1 0.3-0.6 0.1-1.1 0.1l-1 0.2q-0.4 0.3-0.7 0.7-0.3 0.3-0.7 0.7-0.3 0.3-0.7 0.7-0.3 0.3-0.7 0.6z"/>
		<path id="Layer" class="s8" d="m290.2 476.6q0.1 0 0.3 0 0.1 0 0.3 0 0.2 0 0.3 0 0.2 0.1 0.3 0.1c0.7-0.7 1.3-1.4 2-2.2-1.9-0.5-3.8-0.5-5.7-0.1-1.8 0.3-3.6 1.1-5.1 2.3-1.5 1.1-2.7 2.6-3.6 4.3-0.8 1.7-1.2 3.6-1.2 5.5q-0.1 0.7 0 1.3c0.2-1.5 0.6-3 1.3-4.4 0.7-1.4 1.6-2.6 2.7-3.6 1.2-1 2.5-1.8 3.9-2.4 1.4-0.5 3-0.8 4.5-0.8z"/>
	</g>
	<g id="Layer" style="opacity: .1">
		<path id="Layer" class="s8" d="m231.1 480.8q-1.9-0.1-3.8-0.4-0.5 0-1.1-0.1-0.5-0.1-1-0.3-0.6-0.2-1.1-0.4-0.5-0.3-0.9-0.6-1.1 0.8-2 1.8-0.8 1-1.5 2.1-0.6 1.1-1 2.4-0.4 1.2-0.5 2.5-0.1-0.1-0.1-0.3 0-0.2 0-0.3 0-0.2 0-0.3 0-0.2 0-0.4 0-1.4 0.3-2.8 0.3-1.5 1-2.8 0.6-1.3 1.6-2.4 0.9-1.1 2.1-2 0.5 0.3 1 0.6 0.5 0.2 1 0.4 0.5 0.1 1.1 0.3 0.5 0.1 1.1 0.1l1 0.2q0.3 0.3 0.6 0.7 0.4 0.3 0.7 0.7 0.4 0.3 0.7 0.7 0.4 0.3 0.8 0.6z"/>
		<path id="Layer" class="s8" d="m230.6 476.6q-0.2 0-0.4 0-0.1 0-0.3 0-0.1 0-0.3 0-0.1 0.1-0.3 0.1c-0.6-0.7-1.3-1.4-1.9-2.2 1.8-0.5 3.7-0.5 5.6-0.1 1.9 0.3 3.6 1.1 5.1 2.3 1.5 1.1 2.8 2.6 3.6 4.3 0.8 1.7 1.3 3.6 1.3 5.5q0 0.7-0.1 1.3c-0.1-1.5-0.6-3-1.3-4.4-0.7-1.4-1.6-2.6-2.7-3.6-1.1-1-2.5-1.8-3.9-2.4-1.4-0.5-2.9-0.8-4.4-0.8z"/>
	</g>
	<path id="Layer" class="s7" d="m196.8 599.1h-97.7q-0.8 0-1.5-0.3-0.8-0.3-1.4-0.9-0.6-0.6-0.9-1.3-0.3-0.8-0.3-1.6v-46.3c0-0.7 0.2-1.3 0.5-2 0.4-0.6 0.8-1.1 1.4-1.5 0.6-0.3 1.3-0.6 2-0.6 0.7 0 1.4 0.1 2 0.4 28.1 13.3 58.3 17.9 94 0.2 0.7-0.3 1.4-0.5 2.1-0.4 0.7 0 1.4 0.2 2 0.6 0.6 0.4 1.1 0.9 1.4 1.5 0.3 0.6 0.5 1.3 0.5 2v46q0 0.8-0.3 1.6-0.3 0.8-0.8 1.4-0.6 0.6-1.4 0.9-0.7 0.3-1.6 0.3z"/>
	<path id="Layer" class="s0" d="m196.8 599.1h-97.7q-0.8 0-1.5-0.3-0.8-0.3-1.4-0.9-0.6-0.6-0.9-1.3-0.3-0.8-0.3-1.6v-46.3c0-0.7 0.2-1.3 0.5-2 0.4-0.6 0.8-1.1 1.4-1.5 0.6-0.3 1.3-0.6 2-0.6 0.7 0 1.4 0.1 2 0.4 28.1 13.3 58.3 17.9 94 0.2 0.7-0.3 1.4-0.5 2.1-0.4 0.7 0 1.4 0.2 2 0.6 0.6 0.4 1.1 0.9 1.4 1.5 0.3 0.6 0.5 1.3 0.5 2v46q0 0.8-0.3 1.6-0.3 0.8-0.8 1.4-0.6 0.6-1.4 0.9-0.7 0.3-1.6 0.3z"/>
	<path id="Layer" class="s9" d="m147.3 564c-3.2 0-5.8-3.4-5.8-7.6 0-4.2 2.6-7.6 5.8-7.6 3.2 0 5.8 3.4 5.8 7.6 0 4.2-2.6 7.6-5.8 7.6z"/>
	<path id="Layer" class="s9" d="m147.3 554.7c-3.2 0-5.8-3.4-5.8-7.5 0-4.2 2.6-7.6 5.8-7.6 3.2 0 5.8 3.4 5.8 7.6 0 4.1-2.6 7.5-5.8 7.5z"/>
	<path id="Layer" class="s9" d="m147.3 545.5c-3.2 0-5.8-3.4-5.8-7.6 0-4.2 2.6-7.6 5.8-7.6 3.2 0 5.8 3.4 5.8 7.6 0 4.2-2.6 7.6-5.8 7.6z"/>
	<path id="Layer" class="s9" d="m147.3 536.2c-3.2 0-5.8-3.4-5.8-7.6 0-4.1 2.6-7.5 5.8-7.5 3.2 0 5.8 3.4 5.8 7.5 0 4.2-2.6 7.6-5.8 7.6z"/>
	<path id="Layer" class="s9" d="m147.3 527c-3.2 0-5.8-3.4-5.8-7.6 0-4.2 2.6-7.6 5.8-7.6 3.2 0 5.8 3.4 5.8 7.6 0 4.2-2.6 7.6-5.8 7.6z"/>
	<path id="Layer" class="s9" d="m147.3 517.7c-3.2 0-5.8-3.4-5.8-7.6 0-4.2 2.6-7.5 5.8-7.5 3.2 0 5.8 3.3 5.8 7.5 0 4.2-2.6 7.6-5.8 7.6z"/>
	<path id="Layer" class="s7" d="m147.3 508.4c-3.2 0.1-5.8-3.3-5.8-7.5 0-4.2 2.6-7.6 5.8-7.6 3.2 0 5.8 3.4 5.8 7.6 0 4.2-2.6 7.6-5.8 7.6z"/>
	<path id="Layer" class="s7" d="m169 437.5q0.3-0.3 0.6-0.7 0.3-0.4 0.5-0.8 0.3-0.4 0.6-0.8 0.2-0.4 0.5-0.8l-15.2-2.5 16.4 0.1q1.2-2.6 1.8-5.4 0.7-2.7 0.7-5.6 0.1-2.8-0.4-5.6-0.5-2.8-1.6-5.4l-22 11.4 20.3-15c-3.8-6.6-10.3-11.4-17.8-13.1-7.5-1.7-15.3-0.3-21.7 4.1-6.4 4.3-10.7 11-11.9 18.6-1.1 7.6 0.9 15.4 5.6 21.4q-0.4 0.6-0.9 1.2-0.4 0.6-0.8 1.3-0.4 0.6-0.7 1.3-0.4 0.6-0.7 1.3l19.7 10.3-21-7.1q-1.1 3.3-1.4 6.8-0.2 3.4 0.3 6.8 0.6 3.4 2 6.6 1.4 3.1 3.6 5.8c-6.6 8.4-7.8 19.7-3.2 29.3 4.7 9.5 14.3 15.6 25 15.6 10.6 0 20.2-6.1 24.9-15.6 4.6-9.6 3.4-20.9-3.2-29.3 1.9-2.4 3.4-5.1 4.4-8 1-2.9 1.6-6 1.6-9.1 0-3.1-0.6-6.1-1.6-9.1-1-2.9-2.5-5.6-4.4-8z"/>
	<path id="Layer" class="s0" d="m119.5 454.7q0 2.3 0.4 4.6 0.4 2.2 1.1 4.4 0.8 2.2 1.9 4.3 1.1 2 2.5 3.8c-6.5 8.3-7.8 19.7-3.1 29.2 4.6 9.6 14.3 15.6 24.9 15.6 10.6 0 20.3-6 24.9-15.6 4.7-9.5 3.4-20.9-3.1-29.2 3.7-4.7-49.5-20.2-49.5-17.1z"/>
	<path id="Layer" class="s7" d="m196.8 601.6h-97.7q-0.8 0-1.5-0.3-0.8-0.4-1.4-0.9-0.6-0.6-0.9-1.4-0.3-0.7-0.3-1.6v-48.7c0-0.7 0.2-1.3 0.5-2 0.4-0.6 0.8-1.1 1.4-1.5 0.6-0.3 1.3-0.6 2-0.6 0.7 0 1.4 0.1 2 0.4 28.1 13.3 50.4 28.8 94 0.2 2.6-1.7 6 0.6 6 3.7v48.5q0 0.8-0.3 1.6-0.3 0.7-0.9 1.3-0.5 0.6-1.3 0.9-0.7 0.4-1.6 0.4z"/>
	<path id="Layer" class="s10" d="m921.8 587.8l-144.1 19.1-7.2 0.9-70.5-37.6v-8.8l220.2-24 1.6 50.4z"/>
	<path id="Layer" class="s11" d="m740.9 574.2l156.1-18.4-1.6 28.8-121.6 8.9-32.9-19.3z"/>
	<path id="Layer" class="s3" d="m777.7 597.4v9.5l-7.2 1-70.5-37.7v-8.8l67.3 36c0 0 8.8 0.8 10.4 0z"/>
	<path id="Layer" class="s9" d="m799.9 455.6l-20.2 152.2c-0.2 1.5-0.1 3 0.5 4.5 0.5 1.4 1.3 2.7 2.5 3.8 1.1 1 2.5 1.8 3.9 2.2 1.5 0.4 3.1 0.4 4.6 0.1l201.9-43.4q1.3-0.3 2.5-0.9 1.2-0.6 2.2-1.6 0.9-0.9 1.6-2.1 0.7-1.2 1-2.5l33.4-136.3c0.3-1.5 0.3-3.1-0.1-4.6-0.3-1.5-1.1-2.9-2.1-4-1-1.2-2.3-2.1-3.8-2.6-1.5-0.6-3-0.8-4.6-0.6l-215 27.6q-1.5 0.2-3 0.9-1.4 0.7-2.5 1.8-1.1 1.1-1.8 2.5-0.8 1.4-1 3z"/>
	<path id="Layer" class="s6" d="m917.9 502.6c-0.5 4.8-3.4 8.4-6.5 8.1-3.1-0.3-5.2-4.5-4.7-9.3 0.5-4.7 3.4-8.3 6.5-8 3.1 0.3 5.2 4.4 4.7 9.2z"/>
</svg>